<svg xmlns="http://www.w3.org/2000/svg" viewBox="0 0 100 100" fill="none">
  <g fill="#E8B81E">
    <!-- Sol: disco -->
    <circle cx="50" cy="56" r="15"/>
    <!-- Sol: rayos triangulares -->
    <g>
      <polygon points="50,30 47,38 53,38"/>
      <polygon points="68,36 62,41 66,45"/>
      <polygon points="76,52 68,49 68,55"/>
      <polygon points="68,68 66,61 62,65"/>
      <polygon points="32,36 38,41 34,45"/>
      <polygon points="24,52 32,49 32,55"/>
      <polygon points="32,68 34,61 38,65"/>
    </g>
    <!-- Luna creciente -->
    <path d="M30 56a20 20 0 1 0 14-19 16 16 0 1 1 0 38 20 20 0 0 0-14-19z" opacity="0"/>
    <!-- Arco de estrellas -->
    <g>
      <polygon points="14,42 15.2,45.4 18.8,45.4 15.9,47.6 17,51 14,48.9 11,51 12.1,47.6 9.2,45.4 12.8,45.4"/>
      <polygon points="20,30 21.2,33.4 24.8,33.4 21.9,35.6 23,39 20,36.9 17,39 18.1,35.6 15.2,33.4 18.8,33.4"/>
      <polygon points="31,20 32.2,23.4 35.8,23.4 32.9,25.6 34,29 31,26.9 28,29 29.1,25.6 26.2,23.4 29.8,23.4"/>
      <polygon points="50,15 51.2,18.4 54.8,18.4 51.9,20.6 53,24 50,21.9 47,24 48.1,20.6 45.2,18.4 48.8,18.4"/>
      <polygon points="69,20 70.2,23.4 73.8,23.4 70.9,25.6 72,29 69,26.9 66,29 67.1,25.6 64.2,23.4 67.8,23.4"/>
      <polygon points="80,30 81.2,33.4 84.8,33.4 81.9,35.6 83,39 80,36.9 77,39 78.1,35.6 75.2,33.4 78.8,33.4"/>
      <polygon points="86,42 87.2,45.4 90.8,45.4 87.9,47.6 89,51 86,48.9 83,51 84.1,47.6 81.2,45.4 84.8,45.4"/>
    </g>
  </g>
</svg>
